<?xml version="1.0" encoding="UTF-8"?>
<svg width="120px" height="80px" viewBox="0 0 120 80" version="1.1" xmlns="http://www.w3.org/2000/svg" xmlns:xlink="http://www.w3.org/1999/xlink">
    <title>Mastercard</title>
    <g stroke="none" stroke-width="1" fill="none" fill-rule="evenodd">
        <rect fill="#F8F9FA" x="0" y="0" width="120" height="80" rx="8"></rect>
        <g transform="translate(15, 20)">
            <circle fill="#EB001B" cx="34.5" cy="20" r="20"></circle>
            <circle fill="#F79E1B" cx="55.5" cy="20" r="20"></circle>
            <path d="M45,33 C40.6,29.5 37.8,24.1 37.8,18 C37.8,11.9 40.6,6.5 45,3 C49.4,6.5 52.2,11.9 52.2,18 C52.2,24.1 49.4,29.5 45,33 Z" fill="#FF5F00"></path>
            <path d="M85.3,29.2 L85.3,28.6 L85.5,28.6 L85.5,28.5 L85,28.5 L85,28.6 L85.2,28.6 L85.2,29.2 L85.3,29.2 Z M86.3,29.2 L86.3,28.5 L86.1,28.5 L86,29 L85.8,28.5 L85.6,28.5 L85.6,29.2 L85.7,29.2 L85.7,28.6 L85.9,29.2 L86,29.2 L86.2,28.6 L86.2,29.2 L86.3,29.2 Z" fill="#F79E1B"></path>
            <path d="M86.8,13.8 L86.8,28.1 L70.2,28.1 L70.2,26.2 C73,26.2 75.7,24.3 75.7,20.1 C75.7,15.9 73,14 70.2,14 L70.2,12.1 L86.8,12.1 L86.8,13.8 Z M68.3,13.8 L68.3,14.9 C66.9,15.4 64.9,16.7 64.9,20 C64.9,23.3 66.8,24.6 68.3,25.1 L68.3,26.5 C66.4,26.2 63.6,24.8 63.6,20 C63.6,15.2 66.4,13.8 68.3,13.5 L68.3,13.8 Z M70.2,16.1 C71.7,16.1 73.3,16.9 73.3,20 C73.3,23.1 71.7,23.9 70.2,23.9 L70.2,16.1 Z M10.4,20.5 L10.4,20 L10.4,19.5 L10.4,20 L10.4,20.5 Z M3.1,22.7 L3.1,20.2 L5.7,20.2 L5.7,19.4 L3.1,19.4 L3.1,17.3 L6.2,17.3 L6.2,16.5 L2.1,16.5 L2.1,23.5 L6.3,23.5 L6.3,22.7 L3.1,22.7 Z M7.2,19.1 C7.2,21.5 8.9,23.6 11.8,23.6 C12.7,23.6 13.5,23.5 14.5,22.7 L14.5,20.9 C13.7,21.7 12.9,22 11.9,22 C10,22 8.8,20.6 8.8,19.1 C8.8,17.5 10.1,16.2 11.9,16.2 C12.9,16.2 13.7,16.5 14.5,17.3 L14.5,15.5 C13.5,14.8 12.7,14.6 11.8,14.6 C8.9,14.6 7.2,16.6 7.2,19.1 Z M26,21.7 C26,22.5 25.7,23.5 22.4,23.5 L18.7,23.5 L18.7,16.5 L22,16.5 C24.7,16.5 25.5,17.3 25.5,18.3 C25.5,19.2 24.9,19.7 24.2,19.9 C25.1,20.1 26,20.6 26,21.7 Z M20.2,17.3 L20.2,19.3 L22,19.3 C23,19.3 23.7,19 23.7,18.3 C23.7,17.6 23.1,17.3 22.2,17.3 L20.2,17.3 Z M21.9,22.7 C23,22.7 24.4,22.5 24.4,21.6 C24.4,20.7 23.1,20.5 22,20.5 L20.2,20.5 L20.2,22.7 L21.9,22.7 Z M31.6,21.5 L30.8,19.5 C30.5,18.7 30.3,17.9 30.3,17.9 L30.3,17.9 C30.3,17.9 30.1,18.7 29.7,19.5 L28.9,21.5 L31.6,21.5 Z M29.1,16.5 L32.1,23.5 L30.5,23.5 L29.8,22.3 L27.7,22.3 L27,23.5 L25.4,23.5 L28.4,16.5 L29.1,16.5 Z" fill="#231F20" fill-rule="nonzero"></path>
        </g>
    </g>
</svg> 