<?xml version="1.0" encoding="UTF-8"?>
<svg width="120px" height="80px" viewBox="0 0 120 80" version="1.1" xmlns="http://www.w3.org/2000/svg" xmlns:xlink="http://www.w3.org/1999/xlink">
    <title>Visa</title>
    <g stroke="none" stroke-width="1" fill="none" fill-rule="evenodd">
        <rect fill="#F8F9FA" x="0" y="0" width="120" height="80" rx="8"></rect>
        <g transform="translate(10, 20)">
            <path d="M39.5,9.5 L35.1,30.4 L28.5,30.4 L32.9,9.5 L39.5,9.5 Z M64.6,19.9 L67.6,24.7 L69.5,19.9 L73,9.5 L79.9,9.5 L73.2,30.4 L67.1,30.4 L59.8,14.7 L57.6,28.5 C57.4,29.7 56.5,30.4 55.5,30.4 L46.8,30.4 L46.8,29.8 C48.6,29.4 50.7,28.7 51.8,28 C52.5,27.5 52.8,27 53,26 L55.6,9.5 L62.2,9.5 L64.6,19.9 Z M53,7.9 C51.7,3.3 47.7,0 42.9,0 C35.1,0 28.9,6.1 28.9,13.8 C28.9,19.5 33,22.8 36.1,24.7 C39.2,26.6 40.4,27.9 40.4,29.6 C40.4,32.2 37.3,33.3 34.5,33.3 C30,33.3 27.7,32.1 24.8,29.9 L23.3,29 L21.6,35.7 C23.2,36.7 27.2,38.5 31.4,38.5 C39.7,38.5 45.7,32.5 45.7,24.3 C45.7,19.8 43.3,16.3 38.6,13.5 C35.7,11.7 34,10.5 34,8.6 C34,6.9 35.9,5.2 39.5,5.2 C42.4,5.2 44.4,6 45.9,6.8 L47,7.4 L53,7.9 Z M84.8,9.5 C83.6,9.5 82.3,10 81.8,11.3 L70.7,30.4 L77.5,30.4 L79.2,26 L88.4,26 L89.3,30.4 L95.4,30.4 L90.5,9.5 L84.8,9.5 Z M85.6,14.6 L87.4,21.3 L81.3,21.3 L85.6,14.6 Z" fill="#1A1F71"></path>
        </g>
    </g>
</svg> 